<svg xmlns="http://www.w3.org/2000/svg" height="512px" viewBox="0 0 480 480" width="512px"><g><path d="m472 0h-168c-12.640625.0351562-24.511719 6.0625-32 16.246094-7.488281-10.183594-19.359375-16.2109378-32-16.246094h-168c-4.417969 0-8 3.582031-8 8v136h16v-128h160c13.253906 0 24 10.746094 24 24v256c-1.277344-.964844-2.613281-1.847656-4-2.648438l-8 13.855469c4.871094 2.90625 8.554688 7.441407 10.398438 12.800781h-6.398438v16h216c4.417969 0 8-3.582031 8-8v-320.007812c0-4.417969-3.582031-8-8-8zm-168 16h160v272h-160c-8.65625-.011719-17.082031 2.796875-24 8v-256c0-13.253906 10.746094-24 24-24zm160 304h-182.527344c3.378906-9.554688 12.394532-15.957031 22.527344-16h160zm0 0" data-original="#000000" class="active-path" data-old_color="#000000" fill="#00C46E"/><path d="m456 400h-8v-24c0-4.417969-3.582031-8-8-8h-72v16h64v16h-144c-1.578125.003906-3.125.46875-4.441406 1.34375l-24 16c-2.222656 1.484375-3.558594 3.980469-3.558594 6.65625s1.335938 5.171875 3.558594 6.65625l24 16c1.316406.875 2.863281 1.339844 4.441406 1.34375h168c13.253906 0 24-10.746094 24-24s-10.746094-24-24-24zm-177.601562 24 12-8h141.601562v16h-141.601562zm177.601562 8h-8v-16h8c4.417969 0 8 3.582031 8 8s-3.582031 8-8 8zm0 0" data-original="#000000" class="active-path" data-old_color="#000000" fill="#00C46E"/><path d="m32 480h176c17.671875 0 32-14.328125 32-32v-256c0-17.671875-14.328125-32-32-32h-176c-17.671875 0-32 14.328125-32 32v256c0 17.671875 14.328125 32 32 32zm-16-288c0-8.835938 7.164062-16 16-16h176c8.835938 0 16 7.164062 16 16v256c0 8.835938-7.164062 16-16 16h-176c-8.835938 0-16-7.164062-16-16zm0 0" data-original="#000000" class="active-path" data-old_color="#000000" fill="#00C46E"/><path d="m40 256h160c4.417969 0 8-3.582031 8-8v-48c0-4.417969-3.582031-8-8-8h-160c-4.417969 0-8 3.582031-8 8v48c0 4.417969 3.582031 8 8 8zm8-48h144v32h-144zm0 0" data-original="#000000" class="active-path" data-old_color="#000000" fill="#00C46E"/><path d="m40 320h32c4.417969 0 8-3.582031 8-8v-32c0-4.417969-3.582031-8-8-8h-32c-4.417969 0-8 3.582031-8 8v32c0 4.417969 3.582031 8 8 8zm8-32h16v16h-16zm0 0" data-original="#000000" class="active-path" data-old_color="#000000" fill="#00C46E"/><path d="m136 272h-32c-4.417969 0-8 3.582031-8 8v32c0 4.417969 3.582031 8 8 8h32c4.417969 0 8-3.582031 8-8v-32c0-4.417969-3.582031-8-8-8zm-8 32h-16v-16h16zm0 0" data-original="#000000" class="active-path" data-old_color="#000000" fill="#00C46E"/><path d="m200 272h-32c-4.417969 0-8 3.582031-8 8v32c0 4.417969 3.582031 8 8 8h32c4.417969 0 8-3.582031 8-8v-32c0-4.417969-3.582031-8-8-8zm-8 32h-16v-16h16zm0 0" data-original="#000000" class="active-path" data-old_color="#000000" fill="#00C46E"/><path d="m40 384h32c4.417969 0 8-3.582031 8-8v-32c0-4.417969-3.582031-8-8-8h-32c-4.417969 0-8 3.582031-8 8v32c0 4.417969 3.582031 8 8 8zm8-32h16v16h-16zm0 0" data-original="#000000" class="active-path" data-old_color="#000000" fill="#00C46E"/><path d="m136 336h-32c-4.417969 0-8 3.582031-8 8v32c0 4.417969 3.582031 8 8 8h32c4.417969 0 8-3.582031 8-8v-32c0-4.417969-3.582031-8-8-8zm-8 32h-16v-16h16zm0 0" data-original="#000000" class="active-path" data-old_color="#000000" fill="#00C46E"/><path d="m200 336h-32c-4.417969 0-8 3.582031-8 8v96c0 4.417969 3.582031 8 8 8h32c4.417969 0 8-3.582031 8-8v-96c0-4.417969-3.582031-8-8-8zm-8 96h-16v-80h16zm0 0" data-original="#000000" class="active-path" data-old_color="#000000" fill="#00C46E"/><path d="m40 448h32c4.417969 0 8-3.582031 8-8v-32c0-4.417969-3.582031-8-8-8h-32c-4.417969 0-8 3.582031-8 8v32c0 4.417969 3.582031 8 8 8zm8-32h16v16h-16zm0 0" data-original="#000000" class="active-path" data-old_color="#000000" fill="#00C46E"/><path d="m136 400h-32c-4.417969 0-8 3.582031-8 8v32c0 4.417969 3.582031 8 8 8h32c4.417969 0 8-3.582031 8-8v-32c0-4.417969-3.582031-8-8-8zm-8 32h-16v-16h16zm0 0" data-original="#000000" class="active-path" data-old_color="#000000" fill="#00C46E"/><path d="m304 168h88v16h-88zm0 0" data-original="#000000" class="active-path" data-old_color="#000000" fill="#00C46E"/><path d="m408 168h32v16h-32zm0 0" data-original="#000000" class="active-path" data-old_color="#000000" fill="#00C46E"/><path d="m304 48h136v16h-136zm0 0" data-original="#000000" class="active-path" data-old_color="#000000" fill="#00C46E"/><path d="m304 88h88v16h-88zm0 0" data-original="#000000" class="active-path" data-old_color="#000000" fill="#00C46E"/><path d="m408 88h32v16h-32zm0 0" data-original="#000000" class="active-path" data-old_color="#000000" fill="#00C46E"/><path d="m304 128h88v16h-88zm0 0" data-original="#000000" class="active-path" data-old_color="#000000" fill="#00C46E"/><path d="m408 128h32v16h-32zm0 0" data-original="#000000" class="active-path" data-old_color="#000000" fill="#00C46E"/><path d="m304 208h88v16h-88zm0 0" data-original="#000000" class="active-path" data-old_color="#000000" fill="#00C46E"/><path d="m408 208h32v16h-32zm0 0" data-original="#000000" class="active-path" data-old_color="#000000" fill="#00C46E"/><path d="m304 248h88v16h-88zm0 0" data-original="#000000" class="active-path" data-old_color="#000000" fill="#00C46E"/><path d="m408 248h32v16h-32zm0 0" data-original="#000000" class="active-path" data-old_color="#000000" fill="#00C46E"/><path d="m104 48h136v16h-136zm0 0" data-original="#000000" class="active-path" data-old_color="#000000" fill="#00C46E"/><path d="m104 88h88v16h-88zm0 0" data-original="#000000" class="active-path" data-old_color="#000000" fill="#00C46E"/><path d="m208 88h32v16h-32zm0 0" data-original="#000000" class="active-path" data-old_color="#000000" fill="#00C46E"/><path d="m104 128h88v16h-88zm0 0" data-original="#000000" class="active-path" data-old_color="#000000" fill="#00C46E"/><path d="m208 128h32v16h-32zm0 0" data-original="#000000" class="active-path" data-old_color="#000000" fill="#00C46E"/></g> </svg>
