<svg xmlns="http://www.w3.org/2000/svg" xmlns:xlink="http://www.w3.org/1999/xlink" version="1.1" class="call-center"  x="0px" y="0px" viewBox="0 0 480 480" style="enable-background:new 0 0 480 480;" xml:space="preserve" width="512px" height="512px"><g><g>
	<g>
		<path d="M456,186.484V63.996c0-4.418-3.582-8-8-8h-72.4C282.923-18.934,147.05-4.546,72.121,88.131    C49.832,115.698,34.679,148.332,28,183.148c-17.636,13.588-27.978,34.584-28,56.848v32c0.052,37.04,28.162,68.015,65.024,71.648    c4.185,17.139,21.472,27.639,38.61,23.454c14.328-3.499,24.398-16.353,24.366-31.102v-160    c0.039-17.642-14.232-31.975-31.874-32.014c-14.749-0.032-27.603,10.038-31.102,24.366c-6.279,0.63-12.447,2.088-18.344,4.336    C74.854,66.05,184.138,2.445,290.772,30.619c20.358,5.379,39.737,13.944,57.42,25.377H240c-4.418,0-8,3.582-8,8v128    c0,4.418,3.582,8,8,8h44l21.6,28.8c2.651,3.535,7.665,4.251,11.2,1.6c0.606-0.455,1.145-0.994,1.6-1.6l21.6-28.8h12v136    c-0.039,17.642,14.232,31.975,31.874,32.014c14.749,0.032,27.603-10.038,31.102-24.366c5.81-0.584,11.527-1.877,17.024-3.848v20.2    c-0.048,39.744-32.256,71.951-72,72h-40v-8c0-4.418-3.582-8-8-8h-35.056c-5.775-5.127-13.222-7.971-20.944-8h-32    c-17.673,0-32,14.327-32,32c0,17.673,14.327,32,32,32h32c7.722-0.029,15.169-2.873,20.944-8H312c4.418,0,8-3.582,8-8v-8h40    c48.577-0.057,87.943-39.423,88-88V331.82c19.982-13.351,31.986-35.792,32-59.824v-32    C480.012,219.549,471.278,200.073,456,186.484z M80,175.996c0-8.837,7.163-16,16-16s16,7.163,16,16v160c0,8.837-7.163,16-16,16    s-16-7.163-16-16V175.996z M64,184.564v142.864c-27.535-4.013-47.965-27.606-48-55.432v-32    C16.035,212.17,36.465,188.577,64,184.564z M256,455.996h-32c-8.837,0-16-7.163-16-16s7.163-16,16-16h32c8.837,0,16,7.163,16,16    S264.837,455.996,256,455.996z M304,447.996h-17.136c1.515-5.226,1.515-10.774,0-16H304V447.996z M400,335.996    c0,8.837-7.163,16-16,16s-16-7.163-16-16v-136h32V335.996z M336,183.996c-2.518,0-4.889,1.186-6.4,3.2L312,210.66l-17.6-23.464    c-1.511-2.014-3.882-3.2-6.4-3.2h-40v-112h192v112H336z M464,271.996c-0.033,27.813-20.473,51.387-48,55.36v-127.36h31.144    c10.796,10.506,16.877,24.936,16.856,40V271.996z" data-original="#000000" class="active-path" data-old_color="#000000" fill="#00C46E"/>
	</g>
</g><g>
	<g>
		<rect x="287.92" y="87.996" width="15.352" height="16" data-original="#000000" class="active-path" data-old_color="#000000" fill="#00C46E"/>
	</g>
</g><g>
	<g>
		<rect x="320" y="87.996" width="104" height="16" data-original="#000000" class="active-path" data-old_color="#000000" fill="#00C46E"/>
	</g>
</g><g>
	<g>
		<rect x="264" y="119.996" width="160" height="16" data-original="#000000" class="active-path" data-old_color="#000000" fill="#00C46E"/>
	</g>
</g><g>
	<g>
		<rect x="264" y="151.996" width="160" height="16" data-original="#000000" class="active-path" data-old_color="#000000" fill="#00C46E"/>
	</g>
</g></g> </svg>
