<svg xmlns="http://www.w3.org/2000/svg" xmlns:xlink="http://www.w3.org/1999/xlink" version="1.1" id="Layer_1" x="0px" y="0px" viewBox="0 0 512 512" style="enable-background:new 0 0 512 512;" xml:space="preserve" width="512px" height="512px" class="hovered-paths"><g><g>
	<polygon style="fill:#A8B4BF" points="285.456,0 171.456,81.536 171.456,100.088 285.456,18.552 399.456,100.088 399.456,81.536     " data-original="#AAC1CE" class="" data-old_color="#AAC1CE"/>
	<polygon style="fill:#A8B4BF" points="190.544,395.488 190.544,102.608 285.456,34.256 380.376,102.608 380.376,395.488  " data-original="#AAC1CE" class="" data-old_color="#AAC1CE"/>
</g><g>
	<rect x="222.848" y="112.56" style="fill:#FFFFFF" width="43.992" height="43.992" data-original="#FFFFFF" class="hovered-path active-path"/>
	<rect x="304.08" y="112.56" style="fill:#FFFFFF" width="43.992" height="43.992" data-original="#FFFFFF" class="hovered-path active-path"/>
</g><g>
	<polygon style="fill:#CBD2DA" points="114,148.144 0,229.68 0,248.232 114,166.696 228,248.232 228,229.68  " data-original="#CFDCE5" class="" data-old_color="#CFDCE5"/>
	<polygon style="fill:#CBD2DA" points="19.088,395.488 19.088,250.752 114,182.4 208.912,250.752 208.912,395.488  " data-original="#CFDCE5" class="" data-old_color="#CFDCE5"/>
</g><g>
	<rect x="51.384" y="260.704" style="fill:#FFFFFF" width="43.992" height="43.992" data-original="#FFFFFF" class="hovered-path active-path"/>
	<rect x="132.624" y="260.704" style="fill:#FFFFFF" width="43.992" height="43.992" data-original="#FFFFFF" class="hovered-path active-path"/>
</g><path style="fill:#00BD4B" d="M399.456,236.744c-42.288,44.44-112.544,34.4-112.544,34.4v120.432  C286.92,462.536,399.456,512,399.456,512S512,462.536,512,391.576V271.152C512,271.152,441.752,281.184,399.456,236.744z" data-original="#32BEA6" class="" data-old_color="#32BEA6"/><polygon style="fill:#FFFFFF" points="394.536,431.944 348.368,388.08 359.384,376.488 392.136,407.584 450.832,324.368   463.904,333.584 " data-original="#FFFFFF" class="hovered-path active-path"/></g> </svg>
