<svg xmlns="http://www.w3.org/2000/svg" xmlns:xlink="http://www.w3.org/1999/xlink" version="1.1" id="Layer_1" x="0px" y="0px" viewBox="0 0 512 512" style="enable-background:new 0 0 512 512;" xml:space="preserve" width="512px" height="512px" class=""><g><g>
	<path style="fill:#DCE4E5" d="M460.8,499.2V260.267H51.132c0,0,0.043,238.933,0.068,238.933H460.8z" data-original="#E8EDEE" class="" data-old_color="#E8EDEE"/>
	<polygon style="fill:#00BF2B" points="204.8,499.201 307.2,499.201 307.2,354.134 204.8,354.134  " data-original="#26B99A" class="" data-old_color="#26B99A"/>
	<path style="fill:#A0ACAD" d="M476.077,260.267H36.124c-9.66,0-14.199-11.947-6.972-18.355L225.197,67.994   c17.161-16.521,44.305-16.521,61.457,0l196.309,174.14C490.098,248.465,485.617,260.267,476.077,260.267" data-original="#434C6D" class="" data-old_color="#434C6D"/>
	<g>
		<polygon style="fill:#C8D2D3" points="85.333,413.868 170.667,413.868 170.667,328.534 85.333,328.534   " data-original="#899ABF" class="" data-old_color="#899ABF"/>
		<polygon style="fill:#C8D2D3" points="341.333,413.868 426.598,413.868 426.598,328.534 341.333,328.534   " data-original="#899ABF" class="" data-old_color="#899ABF"/>
	</g>
	<path style="fill:#C8D2D3" d="M247.467,448h-8.533c-4.71,0-8.533-3.823-8.533-8.533c0-4.71,3.823-8.533,8.533-8.533h8.533   c4.71,0,8.533,3.823,8.533,8.533C256,444.177,252.177,448,247.467,448" data-original="#198C71" class="active-path" data-old_color="#198C71"/>
	<g>
		<polygon style="fill:#00BF2B" points="162.133,81.067 102.4,81.067 42.667,81.067 102.4,4.267   " data-original="#69914B" class="" data-old_color="#69914B"/>
		<polygon style="fill:#00BF2B" points="469.333,81.067 409.6,81.067 349.867,81.067 409.6,4.267   " data-original="#69914B" class="" data-old_color="#69914B"/>
	</g>
	<polygon style="fill:#00A93E" points="143.128,140.8 164.026,122.257 130.328,81.067 102.398,81.067 74.469,81.067 25.598,140.8    102.398,140.8  " data-original="#366030" class="" data-old_color="#366030"/>
	<g>
		<polygon style="fill:#00BF2B" points="135.862,147.246 130.324,140.803 102.403,140.803 74.473,140.803 8.536,217.603     56.553,217.603   " data-original="#69914B" class="" data-old_color="#69914B"/>
		<polygon style="fill:#00BF2B" points="455.301,217.6 503.463,217.6 437.526,140.8 409.597,140.8 381.676,140.8 376.078,147.319       " data-original="#69914B" class="" data-old_color="#69914B"/>
	</g>
	<polygon style="fill:#00A93E" points="368.73,140.8 409.597,140.8 486.397,140.8 437.526,81.067 409.597,81.067 381.676,81.067    347.909,122.334  " data-original="#366030" class="" data-old_color="#366030"/>
	<g>
		<polygon style="fill:#A0ACAD" points="119.467,413.868 136.533,413.868 136.533,328.534 119.467,328.534   " data-original="#434C6D" class="" data-old_color="#434C6D"/>
		<polygon style="fill:#A0ACAD" points="375.467,413.868 392.533,413.868 392.533,328.534 375.467,328.534   " data-original="#434C6D" class="" data-old_color="#434C6D"/>
		<path style="fill:#A0ACAD" d="M503.467,507.733H8.533C3.823,507.733,0,503.91,0,499.2c0-4.71,3.823-8.533,8.533-8.533h494.933    c4.71,0,8.533,3.823,8.533,8.533C512,503.91,508.177,507.733,503.467,507.733" data-original="#434C6D" class="" data-old_color="#434C6D"/>
	</g>
	<g>
		<path style="fill:#C8D2D3" d="M209.454,149.333h-18.62c-4.71,0-8.533-3.823-8.533-8.533s3.823-8.533,8.533-8.533h18.62    c4.71,0,8.533,3.823,8.533,8.533S214.164,149.333,209.454,149.333 M265.305,149.333h-18.611c-4.71,0-8.533-3.823-8.533-8.533    s3.823-8.533,8.533-8.533h18.611c4.719,0,8.533,3.823,8.533,8.533S270.024,149.333,265.305,149.333 M321.164,149.333h-18.62    c-4.71,0-8.533-3.823-8.533-8.533s3.823-8.533,8.533-8.533h18.62c4.719,0,8.533,3.823,8.533,8.533    S325.883,149.333,321.164,149.333" data-original="#899ABF" class="" data-old_color="#899ABF"/>
		<path style="fill:#C8D2D3" d="M136.533,209.067h-17.067c-4.71,0-8.533-3.823-8.533-8.533c0-4.71,3.823-8.533,8.533-8.533h17.067    c4.71,0,8.533,3.823,8.533,8.533C145.067,205.244,141.244,209.067,136.533,209.067 M187.733,209.067h-17.067    c-4.71,0-8.533-3.823-8.533-8.533c0-4.71,3.823-8.533,8.533-8.533h17.067c4.71,0,8.533,3.823,8.533,8.533    C196.267,205.244,192.444,209.067,187.733,209.067 M238.933,209.067h-17.067c-4.71,0-8.533-3.823-8.533-8.533    c0-4.71,3.823-8.533,8.533-8.533h17.067c4.71,0,8.533,3.823,8.533,8.533C247.467,205.244,243.644,209.067,238.933,209.067     M290.133,209.067h-17.067c-4.71,0-8.533-3.823-8.533-8.533c0-4.71,3.823-8.533,8.533-8.533h17.067    c4.71,0,8.533,3.823,8.533,8.533C298.667,205.244,294.844,209.067,290.133,209.067 M341.333,209.067h-17.067    c-4.71,0-8.533-3.823-8.533-8.533c0-4.71,3.823-8.533,8.533-8.533h17.067c4.71,0,8.533,3.823,8.533,8.533    C349.867,205.244,346.044,209.067,341.333,209.067 M392.533,209.067h-17.067c-4.71,0-8.533-3.823-8.533-8.533    c0-4.71,3.823-8.533,8.533-8.533h17.067c4.71,0,8.533,3.823,8.533,8.533C401.067,205.244,397.244,209.067,392.533,209.067" data-original="#899ABF" class="" data-old_color="#899ABF"/>
	</g>
</g></g> </svg>
