<svg version="1.1" class="arrow-black" xmlns="http://www.w3.org/2000/svg" xmlns:xlink="http://www.w3.org/1999/xlink" x="0px" y="0px"
	 viewBox="0 0 261 159" style="enable-background:new 0 0 261 159;" xml:space="preserve">
<g>
	<g>
		<path d="M209.7,87.9c1.7-1.7,1.7-5.2,1.7-7s0-5.2-1.7-3.5l-52.2-52.2c-3.5-3.5-8.7-3.5-12.2,0s-3.5,8.7,0,12.2l34.8,34.8H54.8
			c-5.2,0-8.7,3.5-8.7,8.7c0,5.2,3.5,8.7,8.7,8.7h128.8l-38.3,38.3c-3.5,3.5-3.5,8.7,0,12.2c3.5,3.5,8.7,3.5,12.2,0L209.7,87.9
			L209.7,87.9z"/>
	</g>
</g>
</svg>
