<svg version="1.1" class="flat" xmlns="http://www.w3.org/2000/svg" xmlns:xlink="http://www.w3.org/1999/xlink" x="0px" y="0px"
	 viewBox="0 0 512 512" style="enable-background:new 0 0 512 512;" xml:space="preserve">
<style type="text/css">
	.flat{fill:#00C46E;}
</style>
<g>
	<g>
		<path class="flat" d="M503.6,438.1h-7.4V333.7h7.3c4.7,0,8.4-3.8,8.4-8.4c0-4.7-3.8-8.4-8.4-8.4h-7.3v-78.9h7.3
			c4.7,0,8.4-3.8,8.4-8.4s-3.8-8.4-8.4-8.4h-7.3v-78.8h7.4c4.7,0,8.4-3.8,8.4-8.4s-3.8-8.4-8.4-8.4h-25.4V98.8
			c0-2.6-1.2-5.1-3.3-6.7c-2.1-1.6-4.8-2.1-7.3-1.5L420.2,103c-3.7,1-6.3,4.3-6.3,8.2v14.1h-82.8c-4.7,0-8.4,3.8-8.4,8.4
			s3.8,8.4,8.4,8.4h6.2V221H330c-4.7,0-8.4,3.8-8.4,8.4s3.8,8.4,8.4,8.4h7.3v78.9H330c-4.7,0-8.4,3.8-8.4,8.4c0,4.7,3.8,8.4,8.4,8.4
			h7.3v11.3h-17.5c-4.7,0-8.4,3.8-8.4,8.4c0,4.7,3.8,8.4,8.4,8.4h17.5v76.3h-84.4v-70.1c14-2,27.1-8.7,36.8-19.2
			c11.6-12.6,17.5-29.6,16.2-46.6l-5.7-73.6c-2.2-28.9-26.7-51.6-55.7-51.6s-53.5,22.7-55.7,51.6l-5.7,73.6
			c-1.3,17.1,4.6,34.1,16.2,46.6c9.7,10.5,22.8,17.2,36.8,19.2v70.1H61.8l-2.1-47.9c-0.2-4.5-3.9-8.1-8.4-8.1h-3V270.6
			c0-16.4,11.4-30.3,26.8-33.9c-2.1,4.3-3.3,9.1-3.3,14.2c0,4.7,3.8,8.4,8.4,8.4h47.3c4.7,0,8.4-3.8,8.4-8.4
			c0-17.7-14.4-32.1-32.1-32.1H83.1c-28.6,0-51.8,23.2-51.8,51.8v111.6h-3c-4.5,0-8.2,3.6-8.4,8.1l-2.1,47.9H8.4
			c-4.7,0-8.4,3.8-8.4,8.4s3.8,8.4,8.4,8.4h495.1c4.7,0,8.4-3.8,8.4-8.4S508.2,438.1,503.6,438.1z M103.8,235.7
			c5.3,0,9.9,2.7,12.6,6.8H91.1C93.9,238.3,98.5,235.7,103.8,235.7z M34.7,438.1l1.7-39.1h6.8l1.7,39.1H34.7z M244.5,323.5
			c-4.7,0-8.4,3.8-8.4,8.4v19c-9.3-1.8-17.8-6.4-24.4-13.5c-8.6-9.3-12.7-21.3-11.8-33.8l5.7-73.6c1.6-20.2,18.6-36,38.9-36
			c20.2,0,37.3,15.8,38.9,36l5.7,73.6c1,12.6-3.2,24.6-11.8,33.8c-6.6,7.1-15.1,11.8-24.4,13.5v-19
			C252.9,327.3,249.1,323.5,244.5,323.5z M430.8,117.7l30.4-8v15.5h-30.4V117.7z M372.2,438.1h-18v-76.3h18V438.1z M479.3,438.1
			h-90.1v-84.8c0-4.7-3.8-8.4-8.4-8.4h-26.5V142.2h125L479.3,438.1L479.3,438.1z"/>
	</g>
</g>
<g>
	<g>
		<path class="flat" d="M503.6,470.3H8.4c-4.7,0-8.4,3.8-8.4,8.4c0,4.7,3.8,8.4,8.4,8.4h495.1c4.7,0,8.4-3.8,8.4-8.4
			S508.2,470.3,503.6,470.3z"/>
	</g>
</g>
<g>
	<g>
		<path class="flat" d="M403.1,153.4h-31.3c-4.7,0-8.4,3.8-8.4,8.4v67.6c0,4.7,3.8,8.4,8.4,8.4h31.3c4.7,0,8.4-3.8,8.4-8.4v-67.6
			C411.6,157.2,407.8,153.4,403.1,153.4z M394.7,221h-14.4v-50.7h14.4V221z"/>
	</g>
</g>
<g>
	<g>
		<path class="flat" d="M461.7,153.4h-31.3c-4.7,0-8.4,3.8-8.4,8.4v67.6c0,4.7,3.8,8.4,8.4,8.4h31.3c4.7,0,8.4-3.8,8.4-8.4v-67.6
			C470.1,157.2,466.3,153.4,461.7,153.4z M453.2,221h-14.4v-50.7h14.4V221z"/>
	</g>
</g>
<g>
	<g>
		<path class="flat" d="M403.1,249.2h-31.3c-4.7,0-8.4,3.8-8.4,8.4v67.6c0,4.7,3.8,8.4,8.4,8.4h31.3c4.7,0,8.4-3.8,8.4-8.4v-67.6
			C411.6,253,407.8,249.2,403.1,249.2z M394.7,316.8h-14.4v-50.7h14.4V316.8z"/>
	</g>
</g>
<g>
	<g>
		<path class="flat" d="M461.7,249.2h-31.3c-4.7,0-8.4,3.8-8.4,8.4v67.6c0,4.7,3.8,8.4,8.4,8.4h31.3c4.7,0,8.4-3.8,8.4-8.4v-67.6
			C470.1,253,466.3,249.2,461.7,249.2z M453.2,316.8h-14.4v-50.7h14.4V316.8z"/>
	</g>
</g>
<g>
	<g>
		<path class="flat" d="M461.7,344.9h-31.3c-4.7,0-8.4,3.8-8.4,8.4V421c0,4.7,3.8,8.4,8.4,8.4h31.3c4.7,0,8.4-3.8,8.4-8.4v-67.6
			C470.1,348.7,466.3,344.9,461.7,344.9z M453.2,412.5h-14.4v-50.7h14.4V412.5z"/>
	</g>
</g>
<g>
	<g>
		<path class="flat" d="M98,24.8C62.2,24.8,33,54,33,89.9S62.2,155,98,155c35.9,0,65.1-29.2,65.1-65.1S133.9,24.8,98,24.8z M98,138.1
			c-26.6,0-48.2-21.6-48.2-48.2c0-26.6,21.6-48.2,48.2-48.2c26.6,0,48.2,21.6,48.2,48.2C146.2,116.5,124.6,138.1,98,138.1z"/>
	</g>
</g>
</svg>
