<svg version="1.1" class="goal goal-1 goal-2 goal-3 goal-4 goal-5 goal-6" xmlns="http://www.w3.org/2000/svg" xmlns:xlink="http://www.w3.org/1999/xlink" x="0px" y="0px"
	 viewBox="0 0 599 586" style="enable-background:new 0 0 599 586;" xml:space="preserve">
<style type="text/css">
	.goal{fill:#B6C4C5;}
	.goal-1{fill:#99A8A9;}
	.goal-2{fill:#DCE4E5;}
	.goal-3{fill:#C8D2D3;}
	.goal-4{fill:#00BA63;}
	.goal-5{fill:#00A356;}
	.goal-6{fill:#E1E4FB;}
</style>
<g>
	<path class="goal" d="M510.9,474.8L347.3,207.1c-1.4-2.2-3.8-3.6-6.4-3.6s-5,1.4-6.4,3.6L283.4,291c-1.5,2.4-1.5,5.4,0,7.8
		l112.3,183.7c1.4,2.2,3.8,3.6,6.4,3.6h102.5c2.7,0,5.2-1.5,6.5-3.8C512.4,480,512.3,477.1,510.9,474.8z"/>
	<path class="goal-1" d="M489.2,486.2h15.3c2.7,0,5.2-1.5,6.5-3.8c1.3-2.4,1.3-5.3-0.2-7.6L347.3,207.1c-1.4-2.2-3.8-3.6-6.4-3.6
		s-5,1.4-6.4,3.6l-8,13L489.2,486.2z"/>
	<path class="goal-2" d="M403.5,299l-56.1-91.8c-1.4-2.2-3.8-3.6-6.4-3.6s-5,1.4-6.4,3.6L283.4,291c-1.5,2.4-1.5,5.4,0,7.8l2.6,4.3
		c2,3.2,6,4.5,9.5,2.9l22.7-10.4l16.8,20.6c1.4,1.7,3.5,2.7,5.8,2.7s4.4-1,5.8-2.7l16.8-20.6l30.7,14c3,1.4,6.5,0.6,8.7-1.9
		C404.9,305.4,405.2,301.8,403.5,299z"/>
	<path class="goal-3" d="M376.5,301.7l17.6,8c3,1.4,6.5,0.6,8.7-1.9c2.2-2.5,2.5-6.1,0.8-8.9l-56.1-91.8c-1.4-2.2-3.8-3.6-6.4-3.6
		s-5,1.4-6.4,3.6l-8,13L376.5,301.7z"/>
	<path class="goal-0" d="M408.4,474.8L211.1,152c-1.4-2.2-3.8-3.6-6.4-3.6s-5,1.4-6.4,3.6L1.1,474.8c-1.4,2.3-1.5,5.2-0.2,7.6
		c1.3,2.4,3.8,3.8,6.5,3.8H402c2.7,0,5.2-1.5,6.5-3.8C409.8,480,409.8,477.1,408.4,474.8z"/>
	<path class="goal-1" d="M386.7,486.2H402c2.7,0,5.2-1.5,6.5-3.8c1.3-2.4,1.3-5.3-0.2-7.6L211.1,152c-1.4-2.2-3.8-3.6-6.4-3.6
		s-5,1.4-6.4,3.6l-8,13L386.7,486.2z"/>
	<path class="goal-4" d="M300.1,61.8l-92.7-35.5c-2.3-0.9-4.9-0.6-6.9,0.8c-2,1.4-3.2,3.7-3.2,6.2v71c0,2.5,1.2,4.8,3.2,6.2
		c1.3,0.9,2.7,1.3,4.2,1.3c0.9,0,1.8-0.2,2.7-0.5l92.7-35.5c2.9-1.1,4.8-3.9,4.8-7C304.9,65.7,303,62.9,300.1,61.8z"/>
	<path class="goal-5" d="M200.5,110.5c1.3,0.9,2.7,1.3,4.2,1.3c0.9,0,1.8-0.2,2.7-0.5l92.7-35.5c2.9-1.1,4.8-3.9,4.8-7
		c0-3.1-1.9-5.9-4.8-7l-18.3-7l-84.5,32.4v17.1C197.3,106.8,198.5,109.1,200.5,110.5z"/>
	<path class="goal" d="M204.7,163.4c-4.1,0-7.5-3.4-7.5-7.5V33.3c0-4.1,3.3-7.5,7.5-7.5s7.5,3.4,7.5,7.5v122.6
		C212.2,160,208.9,163.4,204.7,163.4z"/>
	<path class="goal-2" d="M295,289.2L211.1,152c-1.4-2.2-3.8-3.6-6.4-3.6s-5,1.4-6.4,3.6l-83.9,137.3c-1.7,2.8-1.4,6.4,0.8,8.9
		c2.2,2.5,5.7,3.2,8.7,1.9l51.6-23.6l23.4,28.7c1.4,1.7,3.5,2.7,5.8,2.7c2.2,0,4.4-1,5.8-2.7l23.4-28.7l51.6,23.6
		c3,1.4,6.5,0.6,8.7-1.9C296.4,295.6,296.7,292,295,289.2z"/>
	<path class="goal-3" d="M268,292l17.6,8c3,1.4,6.5,0.6,8.7-1.9c2.2-2.5,2.5-6.1,0.8-8.9L211.1,152c-1.4-2.2-3.8-3.6-6.4-3.6
		s-5,1.4-6.4,3.6l-8,13L268,292z"/>
</g>
<g transform="matrix(1 1.22465e-16 1.22465e-16 -1 -1.19545e-13 512)">
	<path class="goal-3" d="M591.7,56.7c0,11.5-9.4,20.9-20.9,20.9l-40.9,0l6.2,21.5v10.3c0,19-15.5,34.5-34.5,34.5
		c-4.6,0-8.4-3.8-8.4-8.4v-22.9c-3.3-5.2-22-26.1-41.8-47.4v10.6h-11.6v-112l33.3-12.5c10.3-3.9,21.1-5.8,32.1-5.8H557
		c11.5,0,20.9,9.4,20.9,20.9c0,4.9-1.7,9.3-4.5,12.9c5.5,3.8,9.1,10.1,9.1,17.2c0,4.9-1.7,9.3-4.5,12.9c2.1,1.4,3.9,3.2,5.3,5.3
		c2.4,3.4,3.7,7.5,3.7,11.9c0,4.9-1.7,9.3-4.5,12.9C588.1,43.2,591.7,49.5,591.7,56.7z"/>
	<path class="goal-2" d="M591.7,56.7c0,11.5-9.4,20.9-20.9,20.9l-40.9,0l6.2,21.5v10.3c0,19-15.5,34.5-34.5,34.5
		c-4.6,0-8.4-3.8-8.4-8.4v-22.9c-3.3-5.2-22-26.1-41.8-47.4v10.6h-11.6V14.7h143.5c2.4,3.4,3.7,7.5,3.7,11.9c0,4.9-1.7,9.3-4.5,12.9
		C588.1,43.2,591.7,49.5,591.7,56.7z"/>
	<rect x="393" y="87.3" class="st5" width="58.5" height="-137.2"/>
	<rect x="393" y="87.3" class="st4" width="58.5" height="-72.6"/>
	<rect x="416.5" y="65.9" class="st6" width="11.5" height="-11.5"/>
</g>
</svg>
