<?xml version="1.0" encoding="utf-8"?>
<!-- Generator: Adobe Illustrator 19.2.1, SVG Export Plug-In . SVG Version: 6.00 Build 0)  -->
<svg version="1.1" id="Capa_1" xmlns="http://www.w3.org/2000/svg" xmlns:xlink="http://www.w3.org/1999/xlink" x="0px" y="0px"
	 viewBox="0 0 471.2 471.2" style="enable-background:new 0 0 471.2 471.2;" xml:space="preserve">
<style type="text/css">
	.st0{fill:#FFFFFF;}
</style>
<g>
	<g>
		<path class="st0" d="M227.6,444.2H104.7c-33.4,0-60.5-27.2-60.5-60.5V87.5c0-33.4,27.2-60.5,60.5-60.5h124.9
			c7.5,0,13.5-6,13.5-13.5S237.1,0,229.6,0H104.7C56.4,0,17.2,39.3,17.2,87.5v296.2c0,48.3,39.3,87.5,87.5,87.5h122.9
			c7.5,0,13.5-6,13.5-13.5S235,444.2,227.6,444.2z"/>
		<path class="st0" d="M450,226.1l-85.8-85.8c-5.3-5.3-13.8-5.3-19.1,0c-5.3,5.3-5.3,13.8,0,19.1l62.8,62.8H134
			c-7.5,0-13.5,6-13.5,13.5s6,13.5,13.5,13.5h273.9L345.1,312c-5.3,5.3-5.3,13.8,0,19.1c2.6,2.6,6.1,4,9.5,4s6.9-1.3,9.5-4
			l85.8-85.8C455.3,239.9,455.3,231.3,450,226.1z"/>
	</g>
</g>
</svg>
