<svg xmlns="http://www.w3.org/2000/svg" xmlns:xlink="http://www.w3.org/1999/xlink" version="1.1" id="Capa_1" x="0px" y="0px" viewBox="0 0 496 496" style="enable-background:new 0 0 496 496;" xml:space="preserve" width="512px" height="512px" class="hovered-paths"><g><path style="fill:#CCD1D9" d="M244,88c-8.8,0-16,7.192-16,16V16c0-8.808,7.2-16,16-16c8.8,0,16,7.192,16,16v88  C260,95.192,252.8,88,244,88z" data-original="#CCD1D9" class=""/><path style="fill:#AAB2BD" d="M380,168v92c0-11.04-8.96-20-20-20s-20,8.96-20,20v-4v-48C340,185.912,357.92,168,380,168z" data-original="#AAB2BD" class=""/><path style="fill:#FFFFFF" d="M244,88c8.8,0,16,7.192,16,16c0,8.8-7.2,16-16,16s-16-7.2-16-16C228,95.192,235.2,88,244,88z" data-original="#656D78" class="hovered-path active-path" data-old_color="#656D78"/><path style="fill:#AAB2BD" d="M376,272l-60,88v-72l24-32v4c0,11.04,8.96,20,20,20C366.56,280,372.32,276.872,376,272z" data-original="#AAB2BD" class=""/><path style="fill:#E6E9ED" d="M164,208h8h32h24h32h8c5.28,0,10.4,0.872,15.12,2.48C302.248,216.72,316,234.72,316,256v32v72  c0,20.96-13.36,38.72-32,45.28c-5.04,1.76-10.4,2.72-16,2.72h-8v-68c0-24.32-19.68-44-44-44s-44,19.68-44,44v68h-8  c-5.6,0-10.96-0.96-16-2.72c-18.64-6.56-32-24.32-32-45.28V256c0-20.96,13.36-38.72,32-45.28C153.04,208.96,158.4,208,164,208z" data-original="#E6E9ED" class=""/><g>
	<path style="fill:#CCD1D9" d="M316,112v144c0-21.28-13.76-39.28-32.88-45.52L284,208v-96c0,8.8,7.2,16,16,16S316,120.8,316,112z" data-original="#CCD1D9" class=""/>
	<path style="fill:#CCD1D9" d="M132,136c-8.8,0-16,7.192-16,16V96c0-8.808,7.2-16,16-16s16,7.192,16,16v56   C148,143.192,140.8,136,132,136z" data-original="#CCD1D9" class=""/>
</g><path style="fill:#FFFFFF" d="M360,240c11.04,0,20,8.96,20,20c0,4.48-1.52,8.64-4,12c-3.68,4.872-9.44,8-16,8  c-11.04,0-20-8.96-20-20S348.96,240,360,240z" data-original="#434A54" class="" data-old_color="#434A54"/><g>
	<path style="fill:#CCD1D9" d="M300,96c-8.8,0-16,7.192-16,16V40c0-8.808,7.2-16,16-16s16,7.192,16,16v72   C316,103.192,308.8,96,300,96z" data-original="#CCD1D9" class=""/>
	<path style="fill:#CCD1D9" d="M188,96c-8.8,0-16,7.192-16,16V40c0-8.808,7.2-16,16-16s16,7.192,16,16v72   C204,103.192,196.8,96,188,96z" data-original="#CCD1D9" class=""/>
</g><path style="fill:#AAB2BD" d="M164,408h8h88h8c5.6,0,10.96-0.96,16-2.72V424c0,8.872-7.12,16-16,16H164c-8.88,0-16-7.128-16-16  v-18.72C153.04,407.04,158.4,408,164,408z" data-original="#AAB2BD" class=""/><g>
	<path style="fill:#FFFFFF" d="M188,96c8.8,0,16,7.192,16,16c0,8.8-7.2,16-16,16s-16-7.2-16-16C172,103.192,179.2,96,188,96z" data-original="#656D78" class="hovered-path active-path" data-old_color="#656D78"/>
	<path style="fill:#FFFFFF" d="M300,96c8.8,0,16,7.192,16,16c0,8.8-7.2,16-16,16s-16-7.2-16-16C284,103.192,291.2,96,300,96z" data-original="#656D78" class="hovered-path active-path" data-old_color="#656D78"/>
</g><path style="fill:#CCD1D9" d="M148,152v58.72c-18.64,6.56-32,24.32-32,45.28V152c0,8.8,7.2,16,16,16S148,160.8,148,152z" data-original="#CCD1D9" class=""/><path style="fill:#FFFFFF" d="M132,136c8.8,0,16,7.192,16,16c0,8.8-7.2,16-16,16s-16-7.2-16-16C116,143.192,123.2,136,132,136z" data-original="#656D78" class="hovered-path active-path" data-old_color="#656D78"/><g>
	<path style="fill:#CCD1D9" d="M244,120c8.8,0,16-7.2,16-16v104h-32V104C228,112.8,235.2,120,244,120z" data-original="#CCD1D9" class=""/>
	<path style="fill:#CCD1D9" d="M204,112v96h-32v-96c0,8.8,7.2,16,16,16S204,120.8,204,112z" data-original="#CCD1D9" class=""/>
</g><polygon style="fill:#FFFFFF" points="164,440 164,472 164,496 268,496 268,472 268,440 " data-original="#656D78" class="hovered-path active-path" data-old_color="#656D78"/><path style="fill:#CCD1D9" d="M260,340v68h-88v-68c0-24.32,19.68-44,44-44S260,315.68,260,340z" data-original="#CCD1D9" class=""/></g> </svg>
