<svg version="1.1" class="message" xmlns="http://www.w3.org/2000/svg" xmlns:xlink="http://www.w3.org/1999/xlink" x="0px" y="0px"
	 viewBox="0 0 512 512" style="enable-background:new 0 0 512 512;" xml:space="preserve">
	<style type="text/css">
	.message{fill:#FFFFFF;}
</style>
<g>
	<g>
		<g>
			<path class="message" d="M465,236.2c-20.5-20.5-46.9-32.8-75.4-35.3V55.7c0-30.7-25-55.7-55.7-55.7H66.8C36.1,0,11.1,25,11.1,55.7
				v445.2c0,6.1,5,11.1,11.1,11.1s11.1-5,11.1-11.1v-345h333.9v45.1c-41.7,3.8-78.7,28.8-97.8,66.2H89c-6.2,0-11.1,5-11.1,11.1
				v111.3c0,6.1,5,11.1,11.1,11.1h199.7c0,0.3-0.2,0.5-0.2,0.8c0,2.9,1.2,5.8,3.3,7.9c20.5,20.5,46.9,32.8,75.4,35.3v56.2
				c0,6.1,5,11.1,11.1,11.1s11.1-5,11.1-11.1v-56.2c62.3-5.6,111.3-58.1,111.3-121.9C500.9,290.1,488.1,259.4,465,236.2z
				 M100.2,378.4v-89h160.6c-3.1,10.8-4.8,21.9-4.8,33.4c0,19.6,4.6,38.5,13.4,55.7H100.2z M33.4,133.6V55.7
				c0-18.4,15-33.4,33.4-33.4h267.1c18.4,0,33.4,15,33.4,33.4v77.9H33.4z M443.8,398.6c-8.3,8.5-18,14.6-29.2,18.2
				c-11.3,5.9-23.5,8.7-36.6,8.2c-25.7,0-48.6-10.8-67.2-27.8c-5.7-5.7-10.6-12-14.6-18.7h-1c-11.1-16.5-17-35.6-17-55.7
				c0-14,2.8-27.4,8.4-40.1c6.9-15.8,17.6-29.2,30.7-39.3c7.3-6.4,15.7-11.2,25-14.2c11.3-5.9,23.5-8.7,36.6-8.2
				c25.7,0,48.6,10.8,67.2,27.8c3.7,3.7,7.1,7.7,10.1,11.9l0.4-0.4c14.2,17.7,21.9,39.5,21.9,62.5
				C478.6,353.1,465.1,380.3,443.8,398.6z"/>
			<path class="message" d="M267.1,66.8H133.6c-6.2,0-11.1,5-11.1,11.1c0,6.1,5,11.1,11.1,11.1h133.6c6.2,0,11.1-5,11.1-11.1
				C278.3,71.8,273.3,66.8,267.1,66.8z"/>
		</g>
	</g>
</g>
<path class="message" d="M319.4,327.5c-0.9-0.9-1.4-2.3-1.4-3.2s0.5-2.3,1.4-3.2l6.4-6.4c1.8-1.8,4.5-1.8,6.4,0l0.5,0.5l25,26.8
	c0.9,0.9,2.3,0.9,3.2,0l60.8-63.1h0.5l0,0c1.8-1.8,4.5-1.8,6.4,0l6.4,6.4c1.8,1.8,1.8,4.5,0,6.4l0,0L362,366.9
	c-0.9,0.9-1.8,1.4-3.2,1.4c-1.4,0-2.3-0.5-3.2-1.4l-35.4-38.1L319.4,327.5L319.4,327.5z"/>
</svg>
