<svg version="1.1" class="objective" xmlns="http://www.w3.org/2000/svg" xmlns:xlink="http://www.w3.org/1999/xlink" x="0px" y="0px"
	 viewBox="0 0 512 512" style="enable-background:new 0 0 512 512;" xml:space="preserve">
<style type="text/css">
	.st0{fill:#00A356;}
	.st1{fill:#008944;}
	.st2{fill:#00BB5D;}
	.st3{fill:#DCE4E5;}
	.st4{fill:#C5CDCD;}
	.st5{fill:none;}
	.st6{fill:#FFFFFF;}
	.st7{font-family:'OpenSans-Bold';}
	.st8{font-size:91px;}
</style>
<g>
	<path class="st0" d="M402.9,226.5l-67.1-63.4L403,97.4c4.4-4.3,5.7-10.7,3.4-16.4s-7.8-9.3-13.9-9.3H240.4L136.8,252.4h255.8
		c6.1,0,11.7-3.7,13.9-9.5C408.8,237.3,407.3,230.7,402.9,226.5z"/>
	<path class="st1" d="M252.8,158.6c-2-6.2-7.8-10.4-14.3-10.4H136.8c-8.3,0-15,6.7-15,15v74.2c0,5.6,3.2,10.8,8.2,13.4
		c2.1,1.1,4.5,1.6,6.8,1.6c3.1,0,6.2-1,8.8-2.9l101.8-74.2C252.6,171.6,254.8,164.8,252.8,158.6z"/>
	<path class="st2" d="M238.5,31.2H61.6v147h176.9c8.3,0,15-6.7,15-15v-117C253.5,37.9,246.8,31.2,238.5,31.2z"/>
	<path class="st3" d="M59.4,410.3c-8.3,0-15-6.7-15-15V15c0-8.3,6.7-15,15-15c8.3,0,15,6.7,15,15v380.3
		C74.4,403.6,67.7,410.3,59.4,410.3z"/>
	<path class="st3" d="M59.4,0v410.3c8.3,0,15-6.7,15-15V15C74.4,6.7,67.7,0,59.4,0z"/>
	<path class="st3" d="M103.8,512H15c-8.3,0-15-6.7-15-15v-45.6C0,418.6,26.6,392,59.4,392s59.4,26.6,59.4,59.4V497
		C118.8,505.3,112,512,103.8,512z"/>
	<path class="st4" d="M59.4,392v120h44.4c8.3,0,15-6.7,15-15v-45.6C118.8,418.6,92.1,392,59.4,392z"/>
</g>
<rect x="127.2" y="61.7" class="st5" width="129" height="124"/>
<text transform="matrix(1 0 0 1 127.1576 130.8467)" class="st6 st7 st8">Д</text>
</svg>
