<svg xmlns="http://www.w3.org/2000/svg" xmlns:xlink="http://www.w3.org/1999/xlink" version="1.1" id="Layer_1" x="0px" y="0px" viewBox="0 0 512 512" style="enable-background:new 0 0 512 512;" xml:space="preserve" width="512px" height="512px" class="hovered-paths"><g><g>
	<g>
		<path style="fill:#A4B5C1" d="M158.897,264.828h-52.966c-4.873,0-8.828-3.946-8.828-8.828s3.955-8.828,8.828-8.828h52.966    c4.873,0,8.828,3.946,8.828,8.828S163.769,264.828,158.897,264.828" data-original="#BDC3C7" class="" data-old_color="#BDC3C7"/>
		<path style="fill:#A4B5C1" d="M211.862,168.896V343.1c0,5.526,4.476,10.002,10.002,10.002h32.962    c5.526,0,10.002-4.476,10.002-10.002V168.896c0-5.526-4.476-10.002-10.002-10.002h-32.962    C216.338,158.895,211.862,163.37,211.862,168.896" data-original="#BDC3C7" class="" data-old_color="#BDC3C7"/>
	</g>
	<g>
		<polygon style="fill:#E5EBEF" points="264.828,308.966 353.103,308.966 353.103,203.034 264.828,203.034   " data-original="#ECF0F1" class="" data-old_color="#ECF0F1"/>
		<path style="fill:#E5EBEF" d="M363.103,0h103.583c5.526,0,10.002,4.476,10.002,10.002v60.619H353.102V10.002    C353.102,4.476,357.586,0,363.103,0" data-original="#ECF0F1" class="" data-old_color="#ECF0F1"/>
		<polygon style="fill:#E5EBEF" points="353.103,388.414 476.69,388.414 476.69,123.586 353.103,123.586   " data-original="#ECF0F1" class="" data-old_color="#ECF0F1"/>
		<path style="fill:#E5EBEF" d="M353.103,441.379H476.69v60.619c0,5.526-4.476,10.002-10.002,10.002H363.105    c-5.526,0-10.002-4.476-10.002-10.002V441.379z" data-original="#ECF0F1" class="" data-old_color="#ECF0F1"/>
	</g>
	<g>
		<path style="fill:#A4B5C1" d="M327.793,388.414h174.204c5.526,0,10.002,4.476,10.002,10.002v32.962    c0,5.526-4.476,10.002-10.002,10.002H327.793c-5.517,0-10.002-4.476-10.002-10.002v-32.962    C317.791,392.889,322.276,388.414,327.793,388.414" data-original="#BDC3C7" class="" data-old_color="#BDC3C7"/>
		<path style="fill:#A4B5C1" d="M327.793,70.621h174.204c5.526,0,10.002,4.476,10.002,10.002v32.962    c0,5.526-4.476,10.002-10.002,10.002H327.793c-5.517,0-10.002-4.476-10.002-10.002V80.622    C317.791,75.096,322.276,70.621,327.793,70.621" data-original="#BDC3C7" class="" data-old_color="#BDC3C7"/>
	</g>
	<path style="fill:#00BE3E" d="M11.698,97.69c-26.492,22.872-2.233,63.073,16.19,86.634c10.726,13.736,16.252,30.826,16.252,48.234   v23.446v23.428c0,17.426-5.526,34.507-16.252,48.234c-18.423,23.578-42.681,63.77-16.19,86.643   c7.415,6.4,17.187,9.419,26.986,9.419h31.938c19.5,0,35.31-15.81,35.31-35.31V256.004V123.59c0-19.5-15.81-35.31-35.31-35.31   H38.684C28.886,88.279,19.114,91.29,11.698,97.69" data-original="#C03A2B" class="hovered-path active-path" data-old_color="#C03A2B"/>
	<polygon style="fill:#E5EBEF" points="158.897,247.172 211.862,211.862 211.862,300.138 158.897,264.828  " data-original="#ECF0F1" class="" data-old_color="#ECF0F1"/>
</g></g> </svg>
