<svg xmlns="http://www.w3.org/2000/svg" id="Layer_3" enable-background="new 0 0 64 64" height="512px" viewBox="0 0 64 64" width="512px" class="hovered-paths"><g><path d="m8 62 15-20h18l15 20z" fill="#54585e" data-original="#54585E" class="" style="fill:#94AAAB" data-old_color="#54585e"/><path d="m23 42-15 20h45l-15-20z" fill="#7e848d" data-original="#7E848D" class="" style="fill:#B2C5C6" data-old_color="#7e848d"/><path d="m4 26h4v36h-4z" fill="#c1c8d1" data-original="#C1C8D1" class="" style="fill:#DCE4E5" data-old_color="#c1c8d1"/><path d="m56 26h4v36h-4z" fill="#c1c8d1" data-original="#C1C8D1" class="" style="fill:#DCE4E5" data-old_color="#c1c8d1"/><path d="m10 4h44v20h-44z" fill="#71995f" data-original="#71995F" class="" style="fill:#00A550" data-old_color="#71995f"/><path d="m10 4h41v20h-41z" fill="#96cc7f" data-original="#96CC7F" class="" style="fill:#00BC55" data-old_color="#96cc7f"/><path d="m54 2h8v24h-8z" fill="#71995f" data-original="#71995F" class="" style="fill:#00A550" data-old_color="#71995f"/><path d="m54 2h5v24h-5z" fill="#96cc7f" data-original="#96CC7F" class="" style="fill:#00BC55" data-old_color="#96cc7f"/><path d="m2 2h8v24h-8z" fill="#71995f" data-original="#71995F" class="" style="fill:#00A550" data-old_color="#71995f"/><path d="m2 2h5v24h-5z" fill="#96cc7f" data-original="#96CC7F" class="" style="fill:#00BC55" data-old_color="#96cc7f"/><g fill="#e5e6e8"><path d="m16 19h-3v-2h3c.552 0 1-.449 1-1s-.448-1-1-1c-1.654 0-3-1.346-3-3s1.346-3 3-3h3v2h-3c-.552 0-1 .449-1 1s.448 1 1 1c1.654 0 3 1.346 3 3s-1.346 3-3 3z" data-original="#E5E6E8" class="hovered-path active-path" data-old_color="#E5E6E8" style="fill:#FFFFFF"/><path d="m21 9h6v2h-6z" data-original="#E5E6E8" class="hovered-path active-path" data-old_color="#E5E6E8" style="fill:#FFFFFF"/><path d="m23 10h2v9h-2z" data-original="#E5E6E8" class="hovered-path active-path" data-old_color="#E5E6E8" style="fill:#FFFFFF"/><path d="m45 9h6v2h-6z" data-original="#E5E6E8" class="hovered-path active-path" data-old_color="#E5E6E8" style="fill:#FFFFFF"/><path d="m47 10h2v9h-2z" data-original="#E5E6E8" class="hovered-path active-path" data-old_color="#E5E6E8" style="fill:#FFFFFF"/><path d="m35 19h-2v-7c0-.551-.448-1-1-1s-1 .449-1 1v7h-2v-7c0-1.654 1.346-3 3-3s3 1.346 3 3z" data-original="#E5E6E8" class="hovered-path active-path" data-old_color="#E5E6E8" style="fill:#FFFFFF"/><path d="m30 15h4v2h-4z" data-original="#E5E6E8" class="hovered-path active-path" data-old_color="#E5E6E8" style="fill:#FFFFFF"/><path d="m43 19h-2v-2c0-.551-.448-1-1-1h-1v3h-2v-9c0-.552.447-1 1-1h1.5c1.93 0 3.5 1.57 3.5 3.5 0 .904-.345 1.729-.909 2.351.56.545.909 1.307.909 2.149zm-4-5h.5c.827 0 1.5-.673 1.5-1.5s-.673-1.5-1.5-1.5h-.5z" data-original="#E5E6E8" class="hovered-path active-path" data-old_color="#E5E6E8" style="fill:#FFFFFF"/></g><path d="m31 59h2v3h-2z" fill="#fff" data-original="#FFF" class="" style="fill:#FFFFFF" data-old_color="#fff"/><path d="m31 55h2v2h-2z" fill="#fff" data-original="#FFF" class="" style="fill:#FFFFFF" data-old_color="#fff"/><path d="m31 51h2v2h-2z" fill="#fff" data-original="#FFF" class="" style="fill:#FFFFFF" data-old_color="#fff"/><path d="m31 47h2v2h-2z" fill="#fff" data-original="#FFF" class="" style="fill:#FFFFFF" data-old_color="#fff"/><path d="m31 42h2v3h-2z" fill="#fff" data-original="#FFF" class="" style="fill:#FFFFFF" data-old_color="#fff"/></g> </svg>
