<svg version="1.1" id="Capa_1" xmlns="http://www.w3.org/2000/svg" xmlns:xlink="http://www.w3.org/1999/xlink" x="0px" y="0px"
	 viewBox="0 0 512 512" style="enable-background:new 0 0 512 512;" xml:space="preserve">
<style type="text/css">
	.st0{fill:#DAE5E6;}
	.st1{fill:#C5D3D4;}
	.st2{fill:#7CAEAF;}
	.st3{font-family:'OpenSans-Bold';}
	.st4{font-size:105.4217px;}
	.st5{fill:#00BD4B;}
	.st6{fill:#00A748;}
</style>
<g>
	<g>
		<path class="st0" d="M343.9,344.2c18.2-20.5,29.4-47.4,29.7-76.9c0.6-64.4-51.7-117.6-116.1-118.2
			c-65.5-0.6-118.8,52.6-118.3,118.1c0.5,63.1,51.6,114.9,114.8,116.2c14.7,0.3,28.8-2.1,41.8-6.8l35,15.6
			c6.2,2.7,13.1-1.8,13.1-8.5V344.2L343.9,344.2z"/>
		<g>
			<g>
				<path class="st1" d="M302.5,503.8c-4.2,0-7.6-3.4-7.6-7.6s3.4-7.6,7.6-7.6c77.1,0,146.4-52.8,156.8-130.6
					c0.6-4.2,4.4-7.1,8.5-6.5c4.2,0.6,7.1,4.4,6.5,8.5C463,445.2,387.2,503.8,302.5,503.8z"/>
			</g>
			<g>
				<path class="st1" d="M45.2,191.8c-0.4,0-0.8,0-1.2-0.1c-4.1-0.6-7-4.5-6.4-8.7C53.9,77.3,150.1,0,256,0s202.1,77.3,218.4,183
					c0.6,4.1-2.2,8-6.4,8.7c-4.1,0.6-8-2.2-8.7-6.4C444.2,86.9,354.4,15.2,256,15.2S67.8,86.9,52.7,185.4
					C52.1,189.1,48.8,191.8,45.2,191.8z"/>
			</g>
			<text transform="matrix(1 0 0 1 184 295.7969)" class="st2 st3 st4">ЕЦ</text>
		</g>
		<g>
			<path class="st5" d="M70.4,358.9H44.8c-22.2,0-40.1-18-40.1-40.1v-93.1c0-22.2,18-40.1,40.1-40.1h25.7L70.4,358.9L70.4,358.9z"/>
			<path class="st6" d="M44.8,185.6c-1.6,0-3.2,0.1-4.7,0.3v172.8c1.6,0.2,3.1,0.3,4.7,0.3h25.7V185.6H44.8z"/>
			<path class="st1" d="M100.9,360.4c0,9.1-7.3,16.4-16.4,16.4l0,0c-9.1,0-16.4-7.3-16.4-16.4V184.1c0-9.1,7.3-16.4,16.4-16.4l0,0
				c9.1,0,16.4,7.3,16.4,16.4V360.4z"/>
		</g>
		<g>
			<path class="st5" d="M440.6,185.6h26.7c22.2,0,40.1,18,40.1,40.1v93.1c0,22.2-18,40.1-40.1,40.1h-26.7V185.6L440.6,185.6z"/>
			<path class="st6" d="M467.2,185.6h-26.7v0.2c20.4,1.9,36.4,19,36.4,40v93.1c0,20.9-16,38.1-36.4,40v0.2h26.7
				c22.2,0,40.1-18,40.1-40.1v-93.1C507.4,203.5,489.4,185.6,467.2,185.6z"/>
			<path class="st1" d="M411.1,184.1c0-9.1,7.3-16.4,16.4-16.4l0,0c9.1,0,16.4,7.3,16.4,16.4v176.3c0,9.1-7.3,16.4-16.4,16.4l0,0
				c-9.1,0-16.4-7.3-16.4-16.4V184.1z"/>
		</g>
		<g>
			<g>
				<path class="st5" d="M226.9,512c-9.1,0-16.5-7.3-16.5-16.4l0,0c0-9.1,7.4-16.4,16.5-16.4H285c9.1,0,16.5,7.3,16.5,16.4l0,0
					c0,9.1-7.4,16.4-16.5,16.4H226.9z"/>
			</g>
		</g>
		<path class="st6" d="M285.1,479.2h-30.4c9.1,0,16.5,7.3,16.5,16.4s-7.4,16.4-16.5,16.4h30.4c9.1,0,16.5-7.3,16.5-16.4
			S294.2,479.2,285.1,479.2z"/>
	</g>
	<path class="st1" d="M257.5,149.1c-7.4-0.1-14.5,0.6-21.5,1.8c51.8,9.2,92.6,52.7,96.1,107.5c3.9,60.7-39.3,113.5-98.2,122.9
		c6.5,1.3,13.2,2,20.1,2.1c14.7,0.3,28.8-2.1,41.8-6.8l35,15.6c6.2,2.7,13.1-1.8,13.1-8.5v-39.5c18.2-20.5,29.4-47.4,29.7-76.9
		C374.1,202.9,321.9,149.7,257.5,149.1z"/>
</g>
</svg>
