<svg xmlns="http://www.w3.org/2000/svg" xmlns:xlink="http://www.w3.org/1999/xlink" version="1.1" id="Layer_1" x="0px" y="0px" viewBox="0 0 512 512" style="enable-background:new 0 0 512 512;" xml:space="preserve" width="512px" height="512px" class=""><g><g>
	<g>
		<g>
			<g>
				<g>
					<g>
						<g>
							<g>
								<g>
									<g>
										<g>
											<path style="fill:#DCE4E5" d="M439.951,460.403H17.192C7.697,460.403,0,452.705,0,443.21V20.452             C0,10.957,7.697,3.259,17.192,3.259h422.759c9.495,0,17.192,7.697,17.192,17.192V443.21             C457.143,452.705,449.446,460.403,439.951,460.403z" data-original="#F2F2F2" class="" data-old_color="#F2F2F2"/>
											<path style="fill:#C8D2D3" d="M439.951,3.259h-55.316c9.495,0,17.192,7.697,17.192,17.192V443.21             c0,9.495-7.697,17.192-17.192,17.192h55.316c9.495,0,17.192-7.697,17.192-17.192V20.452             C457.143,10.957,449.446,3.259,439.951,3.259z" data-original="#CDD6DF" class="" data-old_color="#CDD6DF"/>
											<path style="fill:#A0ACAD" d="M439.951,3.259H17.192C7.697,3.259,0,10.957,0,20.452v52.031h457.143V20.452             C457.143,10.957,449.446,3.259,439.951,3.259z" data-original="#426175" class="" data-old_color="#426175"/>
											<path style="fill:#828C8C" d="M457.143,72.483V20.452c0-9.495-7.697-17.192-17.192-17.192h-55.315             c9.494,0.001,17.191,7.698,17.191,17.192v52.031H457.143z" data-original="#2C4456" class="" data-old_color="#2C4456"/>
										</g>
									</g>
								</g>
							</g>
							<g>
								<g>
									<path style="fill:#DCE4E5" d="M207.887,45.598H39.883c-4.268,0-7.726-3.459-7.726-7.726s3.459-7.726,7.726-7.726h168.004           c4.268,0,7.726,3.459,7.726,7.726S212.155,45.598,207.887,45.598z" data-original="#F2F2F2" class="" data-old_color="#F2F2F2"/>
								</g>
								<g>
									<circle style="fill:#FFFFFF" cx="337.869" cy="37.871" r="8.23" data-original="#46D1C0" class="" data-old_color="#46D1C0"/>
									<circle style="fill:#FFFFFF" cx="377.321" cy="37.871" r="8.23" data-original="#46D1C0" class="" data-old_color="#46D1C0"/>
									<circle style="fill:#FFFFFF" cx="416.773" cy="37.871" r="8.23" data-original="#46D1C0" class="" data-old_color="#46D1C0"/>
								</g>
							</g>
						</g>
					</g>
				</g>
			</g>
			<path style="fill:#00BA63" d="M501.347,382.468h-7.094c-4.662,0-8.817-3.022-10.168-7.484c-1.719-5.675-4.008-11.102-6.8-16.214     c-2.258-4.135-1.496-9.266,1.835-12.597l5.086-5.086c4.16-4.16,4.16-10.905,0-15.066l-8.584-8.585     c-4.16-4.16-10.906-4.16-15.066,0l-5.086,5.086c-3.331,3.331-8.463,4.093-12.597,1.835c-5.113-2.792-10.54-5.081-16.214-6.8     c-4.462-1.352-7.484-5.506-7.484-10.168v-7.093c0-5.884-4.77-10.653-10.653-10.653h-12.14c-5.884,0-10.653,4.77-10.653,10.653     v6.633c0,4.731-3.111,8.928-7.662,10.222c-5.853,1.664-11.451,3.931-16.724,6.731c-4.11,2.182-9.17,1.382-12.461-1.909     l-4.536-4.536c-4.16-4.16-10.905-4.16-15.066,0l-8.585,8.584c-4.16,4.16-4.16,10.905,0,15.066l4.072,4.072     c3.359,3.359,4.112,8.551,1.784,12.692c-3.023,5.376-5.486,11.109-7.308,17.121c-1.358,4.478-5.547,7.497-10.227,7.497h-5.462     c-5.884,0-10.653,4.77-10.653,10.653v12.14c0,5.884,4.77,10.653,10.653,10.653h5.037c4.727,0,8.943,3.094,10.235,7.642     c1.762,6.207,4.203,12.128,7.238,17.678c2.251,4.118,1.458,9.237-1.86,12.555l-3.507,3.507c-4.16,4.16-4.16,10.905,0,15.066     l8.584,8.585c4.16,4.16,10.905,4.16,15.066,0l3.507-3.507c3.318-3.318,8.437-4.112,12.555-1.86     c5.55,3.034,11.471,5.475,17.678,7.238c4.548,1.291,7.642,5.507,7.642,10.235v5.037c0,5.884,4.77,10.653,10.653,10.653h12.14     c5.884,0,10.653-4.77,10.653-10.653v-5.462c0-4.68,3.019-8.869,7.497-10.227c6.012-1.823,11.745-4.286,17.121-7.309     c4.141-2.329,9.332-1.575,12.692,1.784l4.072,4.072c4.16,4.16,10.905,4.16,15.066,0l8.584-8.584c4.16-4.16,4.16-10.905,0-15.066     l-4.536-4.536c-3.291-3.291-4.091-8.35-1.909-12.461c2.8-5.273,5.067-10.871,6.731-16.724c1.294-4.551,5.491-7.662,10.222-7.662     h6.633c5.883,0,10.653-4.77,10.653-10.653v-12.14C512,387.237,507.23,382.468,501.347,382.468z M402.45,446.264     c-25.997,0-47.073-21.075-47.073-47.073s21.075-47.073,47.073-47.073s47.073,21.075,47.073,47.073     S428.448,446.264,402.45,446.264z" data-original="#FD715C" class="active-path" data-old_color="#FD715C"/>
		</g>
		<g>
			<path style="fill:#A0ACAD" d="M98.101,249.068l51.896-33.94c0.79-0.592,1.973-0.789,2.96-0.789c4.144,0,9.472,4.341,9.472,9.866     c0,2.368-1.184,4.539-2.96,5.722l-41.439,27.231l41.439,27.231c1.776,0.986,2.96,3.157,2.96,5.722     c0,5.525-5.328,9.669-9.472,9.669c-0.987,0-2.17-0.197-2.96-0.789l-51.896-33.94c-2.96-1.973-4.341-5.327-4.341-7.893     C93.76,254.593,95.141,251.041,98.101,249.068z" data-original="#33BCA5" class="" data-old_color="#33BCA5"/>
			<path style="fill:#A0ACAD" d="M272.144,167.375c0,1.184-0.197,2.171-0.79,3.157l-72.418,144.441     c-1.184,2.368-3.749,3.749-6.512,3.749c-4.538,0-7.695-3.749-7.695-7.301c0-0.986,0.197-1.973,0.592-2.96l72.616-145.034     c1.184-2.565,3.354-3.552,5.92-3.552C267.803,159.877,272.144,162.837,272.144,167.375z" data-original="#33BCA5" class="" data-old_color="#33BCA5"/>
			<path style="fill:#A0ACAD" d="M358.573,265.051l-51.896,33.94c-0.79,0.592-1.777,0.789-2.763,0.789     c-4.341,0-9.472-4.144-9.472-9.669c0-2.565,1.184-4.736,2.763-5.722l41.636-27.231l-41.636-27.231     c-1.578-1.184-2.763-3.355-2.763-5.722c0-5.525,5.131-9.866,9.472-9.866c0.986,0,1.973,0.197,2.763,0.789l51.896,33.94     c2.96,1.973,4.341,5.525,4.341,8.09C362.914,259.723,361.73,263.078,358.573,265.051z" data-original="#33BCA5" class="" data-old_color="#33BCA5"/>
		</g>
	</g>
</g></g> </svg>
