<svg version="1.1" class="winner winner-1 winner-2 winner-3 winner-4 winner-5 winner-6 winner-7 winner-8 winner-9" xmlns="http://www.w3.org/2000/svg" xmlns:xlink="http://www.w3.org/1999/xlink" x="0px" y="0px"
	 viewBox="0 0 712 512" style="enable-background:new 0 0 712 512;" xml:space="preserve">
<style type="text/css">
	.winner{fill:#A2AAAB;}
	.winner-1{fill:#C6D0D1;}
	.winner-2{fill:#C8D2D3;}
	.winner-3{fill:#828989;}
	.winner-4{fill:#C6CCCC;}
	.winner-5{fill:#DDE3E4;}
	.winner-6{fill:#CAD1D2;}
	.winner-7{fill:#D4DADA;}
	.winner-8{fill:#00B968;}
	.winner-9{fill:#00A25B;}
</style>
<g>
	<path class="winner" d="M648.6,139.8c-33.4,7.2-56.7,40.1-49.5,73.5C632.5,206.1,655.8,173.2,648.6,139.8z"/>
	<path class="winner" d="M596.7,294.4c34.1,1.4,62.9-25.1,64.3-59.3C626.9,233.7,598.1,260.3,596.7,294.4z"/>
	<path class="winner-1" d="M645.3,327.4c-29.5-17.3-85.3-7.4-102.6,22.1C572.1,366.7,628,356.8,645.3,327.4z"/>
	<path class="winner-1" d="M517.4,381c17.3,29.4,53.2,39.3,82.7,21.9C582.8,373.5,546.9,363.7,517.4,381z"/>
	<path class="winner-2" d="M531,173.5c2,34.1,29.2,60.2,63.3,58.2C592.3,197.6,565.1,171.5,531,173.5z"/>
	<path class="winner-2" d="M578.6,314.9c5-33.8-16.4-65.2-50.2-70.2C523.5,278.5,544.8,309.9,578.6,314.9z"/>
	<path class="winner-2" d="M502.1,290.7c-18.7,28.6-10.7,66.9,17.8,85.6C537.1,350.2,526.9,307,502.1,290.7z"/>
	<path class="winner" d="M99.9,213.3c7.2-33.4-14.1-66.3-47.5-73.5C45.2,173.2,66.5,206.1,99.9,213.3z"/>
	<path class="winner" d="M102.3,294.4c-1.4-34.1-30.2-60.7-64.3-59.3C39.4,269.2,68.2,295.8,102.3,294.4z"/>
	<path class="winner-1" d="M138.4,341.7c-17.3-29.5-55.2-39.4-84.6-22.1C71,349.1,108.9,359,138.4,341.7z"/>
	<path class="winner-1" d="M183.6,381c-29.4-17.3-67.4-7.5-84.7,21.9C128.3,420.3,166.2,410.4,183.6,381z"/>
	<path class="winner-2" d="M104.7,231.7c34.1,2,63.3-24.1,65.3-58.2C135.9,171.5,106.6,197.6,104.7,231.7z"/>
	<path class="winner-2" d="M120.3,314.9c33.8-5,57.2-36.4,52.2-70.2C138.7,249.7,115.4,281.1,120.3,314.9z"/>
	<path class="winner-2" d="M218.9,290.7c-28.6,18.7-56.6,57.1-37.8,85.6C209.6,357.6,237.6,319.3,218.9,290.7z"/>
	<path class="winner-3" d="M486.6,406.2c-3.8,0-7-2.7-7.6-6.4c-0.6-3.7,1.5-7.4,5.1-8.6c43.4-15.3,76.2-48.3,93.9-90.8
		s16.5-90.5-3.2-132.1c-1.3-2.5-1.1-5.5,0.5-7.9c1.6-2.3,4.3-3.6,7.1-3.4c2.8,0.3,5.3,2,6.4,4.6c21.6,45.5,22.9,98.1,3.5,144.6
		c-19.4,46.5-55.5,82.7-103,99.5C488.4,406,487.5,406.2,486.6,406.2z"/>
	<path class="winner-3" d="M234.4,406.2c-0.9,0-1.7-0.2-2.6-0.4c-47.5-16.8-105.7-52.9-125-99.5c-19.3-46.5-18-99.1,3.6-144.6
		c1.1-2.6,3.6-4.3,6.4-4.6c2.8-0.3,5.5,1,7.1,3.4c1.6,2.3,1.8,5.3,0.5,7.9c-19.7,41.6-20.9,89.6-3.3,132.1
		c17.7,42.5,72.5,75.5,115.9,90.8c3.6,1.2,5.7,4.9,5.1,8.6C241.4,403.5,238.2,406.2,234.4,406.2L234.4,406.2z"/>
	<g>
		<path class="winner-2" d="M558.1,97.3c-13.1,31.6-0.1,67.7,31.5,80.8C602.6,146.6,589.6,110.4,558.1,97.3z"/>
		<path class="winner-2" d="M109.5,178.2c31.6-13.1,66.5-49.3,53.5-80.8C131.4,110.4,96.4,146.6,109.5,178.2z"/>
	</g>
</g>
<g>
	<g>
		<path class="winner-4" d="M442.9,202.4c-7.4,0-14.8-3.1-19.8-8.4c-7-7.3-8.5-17.6-3.9-27c7.8-16.1,22.9-22.2,36.1-27.6
			c9.8-4,19.1-7.7,25.7-15.1c7.5-8.4,11.2-21.4,11.2-39.7V56.7c-5.2,0.5-9.9,3.3-12.9,7.6l-4,5.8c-5.5,7.9-14.5,12.7-24.1,12.7
			h-24.1c-3.8,0-6.9-3.1-6.9-6.9s3.1-6.9,6.9-6.9h24.1c5.1,0,9.8-2.5,12.7-6.7l4-5.8c5.9-8.6,15.7-13.7,26.1-13.7
			c3.1,0,6.3,1.3,8.6,3.5c2.3,2.3,3.6,5.3,3.6,8.6v29.7c0,21.9-4.8,37.9-14.7,49c-8.7,9.7-20.4,14.5-30.8,18.7
			c-12,4.9-23.3,9.5-28.9,20.8c-2,4.2-1.5,8.2,1.5,11.4c2.4,2.6,6.1,4.1,9.8,4.1c0,0,0,0,0,0c1.6,0,3-0.3,4.3-0.8
			c5.7-2.4,6.3-9.2,6.1-13c-0.2-3.8,2.8-7.1,6.6-7.2c3.8-0.2,7.1,2.8,7.2,6.6c0.6,12.4-4.9,22.2-14.5,26.4
			C449.7,201.8,446.4,202.4,442.9,202.4C442.9,202.4,442.9,202.4,442.9,202.4z M493.9,56.6C494,56.6,494,56.6,493.9,56.6
			C494,56.6,493.9,56.6,493.9,56.6z"/>
		<path class="winner-4" d="M273.2,202.4C273.2,202.4,273.2,202.4,273.2,202.4c-3.4,0-6.7-0.7-9.7-1.9c-9.7-4.1-15.1-14-14.5-26.4
			c0.2-3.8,3.4-6.8,7.2-6.6c3.8,0.2,6.8,3.4,6.6,7.2c-0.2,3.8,0.4,10.5,6.1,13c1.3,0.5,2.7,0.8,4.3,0.8c0,0,0,0,0,0
			c3.7,0,7.3-1.5,9.8-4.1c3-3.1,3.5-7.2,1.5-11.4c-5.5-11.3-16.8-15.9-28.9-20.8c-10.3-4.2-22-9-30.8-18.7
			c-9.9-11.1-14.7-27.1-14.7-49V54.9c0-3.2,1.3-6.3,3.6-8.6c2.3-2.3,5.4-3.6,8.6-3.5c10.4,0,20.1,5.2,26,13.7l4,5.8
			c2.9,4.2,7.6,6.7,12.7,6.7h24.1c3.8,0,6.9,3.1,6.9,6.9s-3.1,6.9-6.9,6.9H265c-9.6,0-18.6-4.7-24.1-12.7l-4-5.8
			c-3-4.3-7.7-7.1-12.9-7.6v27.9c0,18.3,3.7,31.3,11.2,39.7c6.6,7.4,15.9,11.1,25.7,15.1c13.3,5.4,28.3,11.5,36.1,27.6
			c4.5,9.3,3,19.7-3.9,27C288,199.3,280.6,202.4,273.2,202.4z M222.2,56.6C222.2,56.6,222.3,56.6,222.2,56.6
			C222.3,56.6,222.2,56.6,222.2,56.6z"/>
	</g>
	<path class="winner-5" d="M314.4,322.6h87.8c-36.4-43.6-32.6-106.4-32.6-106.4h-11.3H347C347,216.2,350.8,279,314.4,322.6z"/>
	<path class="winner-6" d="M369.6,216.2h-11.3H347c0,0,0.6,10.5-1.1,25.9c-3.1,27.2,3.9,54.8,20.5,76.6c1,1.3,2,2.6,3.1,3.9h32.7
		C365.8,279,369.6,216.2,369.6,216.2z"/>
	<path class="winner-5" d="M276.1,40.5v65.8c0,46.7,22.2,90.5,59.7,118.2l22.3,16.4l22.3-16.4c37.6-27.7,59.7-71.6,59.7-118.2V40.5
		C440.2,40.5,276.1,40.5,276.1,40.5z"/>
	<path class="winner-6" d="M407.5,40.5v65.8c0,46.7-22.2,90.5-59.7,118.2l-6,4.4l16.3,12l22.3-16.4c37.6-27.7,59.7-71.6,59.7-118.2V40.5
		C440.2,40.5,407.5,40.5,407.5,40.5z"/>
	<path class="winner-7" d="M446.2,51.8H270.1c-2.6,0-4.6-2.1-4.6-4.6V33.9c0-2.6,2.1-4.6,4.6-4.6h176.1c2.6,0,4.6,2.1,4.6,4.6v13.3
		C450.8,49.7,448.7,51.8,446.2,51.8z"/>
	<path class="winner-4" d="M446.2,29.3h-27.6v22.5h27.6c2.6,0,4.6-2.1,4.6-4.6V33.9C450.8,31.3,448.7,29.3,446.2,29.3z"/>
	<path class="winner-7" d="M370.8,248.8h-25.3c-4.7,0-8.6-3.8-8.6-8.6v-3.7c0-4.7,3.8-8.6,8.6-8.6h25.3c4.7,0,8.6,3.8,8.6,8.6v3.7
		C379.4,245,375.5,248.8,370.8,248.8z"/>
	<rect x="265.3" y="319.3" class="st8" width="185.6" height="165"/>
	<path class="winner-5" d="M408,441.1h-99.8c-1.9,0-3.5-1.6-3.5-3.5v-71.7c0-1.9,1.6-3.5,3.5-3.5H408c1.9,0,3.5,1.6,3.5,3.5v71.7
		C411.5,439.5,409.9,441.1,408,441.1z"/>
	<path class="winner-6" d="M408,362.5h-28.6v78.6H408c1.9,0,3.5-1.6,3.5-3.5v-71.7C411.5,364,409.9,362.5,408,362.5z"/>
	<rect x="418.7" y="319.3" class="st9" width="32.2" height="165"/>
	<path class="winner-8" d="M461.1,342.5h-206c-3,0-5.4-2.4-5.4-5.4V320c0-3,2.4-5.4,5.4-5.4h206c3,0,5.4,2.4,5.4,5.4v17.2
		C466.5,340.1,464.1,342.5,461.1,342.5z"/>
	<path class="winner-9" d="M461.1,314.6h-26.9v27.9h26.9c3,0,5.4-2.4,5.4-5.4V320C466.5,317,464.1,314.6,461.1,314.6z"/>
	<path class="winner-8" d="M461.1,488.9h-206c-3,0-5.4-2.4-5.4-5.4v-17.2c0-3,2.4-5.4,5.4-5.4h206c3,0,5.4,2.4,5.4,5.4v17.2
		C466.5,486.5,464.1,488.9,461.1,488.9z"/>
	<path class="winner-9" d="M461.1,461h-26.9v27.9h26.9c3,0,5.4-2.4,5.4-5.4v-17.2C466.5,463.4,464.1,461,461.1,461z"/>
	<path class="winner-9" d="M354.5,389l-2,1.2c-0.6,0.4-1.2,0.5-1.7,0.5c-2,0-3.3-2.1-3.3-4.2c0-1.4,0.6-2.8,2-3.6l8.9-5.4
		c0.5-0.3,1.2-0.5,2-0.5c2.2,0,4.6,1.3,4.6,3.3v42.8c0,2.2-2.6,3.2-5.2,3.2c-2.6,0-5.2-1.1-5.2-3.2L354.5,389L354.5,389L354.5,389z"
		/>
</g>
</svg>
